<svg width="459" height="459" viewBox="0 0 459 459" fill="none" xmlns="http://www.w3.org/2000/svg">
<path d="M229.5 38.25C335.108 38.25 420.75 123.892 420.75 229.5C420.75 335.108 335.108 420.75 229.5 420.75C123.892 420.75 38.25 335.108 38.25 229.5C38.25 123.892 123.892 38.25 229.5 38.25Z" fill="url(#paint0_linear_505_86)"/>
<path fill-rule="evenodd" clip-rule="evenodd" d="M331.315 147.983C336.271 143.025 344.466 143.412 348.395 149.217C386.16 205.017 380.337 281.509 330.926 330.92C274.906 386.94 184.091 386.94 128.079 330.92C78.66 281.509 72.8366 205.017 110.602 149.217C114.532 143.411 122.727 143.023 127.684 147.981V147.981C131.93 152.227 132.272 158.947 128.987 163.974C98.594 210.487 103.824 273.474 144.671 314.328C191.519 361.169 267.478 361.169 314.326 314.328C355.174 273.472 360.403 210.483 330.013 163.969C326.73 158.945 327.071 152.228 331.315 147.983V147.983ZM325.17 229.493C325.17 176.292 282.342 133.162 229.506 133.162C176.669 133.162 133.841 176.292 133.841 229.493C133.841 282.701 176.669 325.831 229.506 325.831C282.342 325.831 325.17 282.701 325.17 229.493ZM147.988 127.679C143.03 122.722 143.418 114.526 149.224 110.597C197.566 77.8839 261.438 77.8839 309.774 110.597C315.58 114.526 315.968 122.721 311.01 127.679V127.679C306.764 131.925 300.045 132.267 295.019 128.983C255.336 103.054 203.667 103.055 163.978 128.984C158.952 132.268 152.234 131.925 147.988 127.679V127.679Z" fill="white"/>
<path d="M183.281 200.091C183.281 190.807 190.807 183.281 200.091 183.281V183.281C209.375 183.281 216.901 190.807 216.901 200.091V200.091C216.901 209.375 209.375 216.901 200.091 216.901V216.901C190.807 216.901 183.281 209.375 183.281 200.091V200.091Z" fill="url(#paint1_angular_505_86)"/>
<path d="M183.281 239.059C183.281 229.775 190.807 222.249 200.091 222.249V222.249C209.375 222.249 216.901 229.775 216.901 239.059V239.059C216.901 248.343 209.375 255.869 200.091 255.869V255.869C190.807 255.869 183.281 248.343 183.281 239.059V239.059Z" fill="url(#paint2_angular_505_86)"/>
<path d="M183.281 278.034C183.281 268.75 190.807 261.224 200.091 261.224V261.224C209.375 261.224 216.901 268.75 216.901 278.034V278.034C216.901 287.318 209.375 294.844 200.091 294.844V294.844C190.807 294.844 183.281 287.318 183.281 278.034V278.034Z" fill="url(#paint3_angular_505_86)"/>
<path d="M222.249 200.091C222.249 190.807 229.775 183.281 239.059 183.281V183.281C248.343 183.281 255.869 190.807 255.869 200.091V200.091C255.869 209.375 248.343 216.901 239.059 216.901V216.901C229.775 216.901 222.249 209.375 222.249 200.091V200.091Z" fill="url(#paint4_angular_505_86)"/>
<path d="M261.224 200.091C261.224 190.807 268.75 183.281 278.034 183.281V183.281C287.318 183.281 294.844 190.807 294.844 200.091V200.091C294.844 209.375 287.318 216.901 278.034 216.901V216.901C268.75 216.901 261.224 209.375 261.224 200.091V200.091Z" fill="url(#paint5_angular_505_86)"/>
<path d="M239.059 255.188C248.343 255.188 255.869 247.662 255.869 238.378C255.869 229.094 248.343 221.568 239.059 221.568C229.775 221.568 222.249 229.094 222.249 238.378C222.249 247.662 229.775 255.188 239.059 255.188Z" fill="url(#paint6_angular_505_86)"/>
<defs>
<linearGradient id="paint0_linear_505_86" x1="38.25" y1="229.5" x2="420.75" y2="229.5" gradientUnits="userSpaceOnUse">
<stop stop-color="#770DFF"/>
<stop offset="1" stop-color="#FE13BC"/>
</linearGradient>
<radialGradient id="paint1_angular_505_86" cx="0" cy="0" r="1" gradientUnits="userSpaceOnUse" gradientTransform="translate(200.091 200.091) rotate(90) scale(16.81)">
<stop offset="0.316066" stop-color="#940EF0"/>
<stop offset="1" stop-color="#DF11CB"/>
</radialGradient>
<radialGradient id="paint2_angular_505_86" cx="0" cy="0" r="1" gradientUnits="userSpaceOnUse" gradientTransform="translate(200.091 239.059) rotate(90) scale(16.81 16.81)">
<stop offset="0.316066" stop-color="#940EF0"/>
<stop offset="1" stop-color="#DF11CB"/>
</radialGradient>
<radialGradient id="paint3_angular_505_86" cx="0" cy="0" r="1" gradientUnits="userSpaceOnUse" gradientTransform="translate(200.091 278.034) rotate(90) scale(16.81 16.81)">
<stop offset="0.316066" stop-color="#940EF0"/>
<stop offset="1" stop-color="#DF11CB"/>
</radialGradient>
<radialGradient id="paint4_angular_505_86" cx="0" cy="0" r="1" gradientUnits="userSpaceOnUse" gradientTransform="translate(239.059 200.091) rotate(90) scale(16.81)">
<stop offset="0.316066" stop-color="#940EF0"/>
<stop offset="1" stop-color="#DF11CB"/>
</radialGradient>
<radialGradient id="paint5_angular_505_86" cx="0" cy="0" r="1" gradientUnits="userSpaceOnUse" gradientTransform="translate(278.034 200.091) rotate(90) scale(16.81 16.81)">
<stop offset="0.316066" stop-color="#940EF0"/>
<stop offset="1" stop-color="#DF11CB"/>
</radialGradient>
<radialGradient id="paint6_angular_505_86" cx="0" cy="0" r="1" gradientUnits="userSpaceOnUse" gradientTransform="translate(239.059 238.378) rotate(90) scale(16.81 16.81)">
<stop offset="0.316066" stop-color="#940EF0"/>
<stop offset="1" stop-color="#DF11CB"/>
</radialGradient>
</defs>
</svg>
