<svg width="21" height="21" viewBox="0 0 21 21" fill="none" xmlns="http://www.w3.org/2000/svg">
<g clip-path="url(#clip0_505_66)">
<path d="M7.69759 15.6473C10.0255 15.9706 12.1774 14.3257 12.504 11.9733C12.8307 9.62087 11.2084 7.45188 8.8805 7.12862C6.5526 6.80537 4.40072 8.45028 4.07406 10.8027C3.74741 13.1551 5.3697 15.3241 7.69759 15.6473ZM7.48252 17.1962C4.30825 16.7554 2.09593 13.7975 2.54134 10.5898C2.98676 7.38217 5.92131 5.13899 9.09557 5.57977C12.2698 6.02055 14.4822 8.97842 14.0367 12.1861C13.5913 15.3938 10.6568 17.637 7.48252 17.1962Z" fill="#C85CFB"/>
<path d="M11.1932 12.9753C13.5211 13.2985 15.6729 11.6536 15.9996 9.30121C16.3263 6.94881 14.704 4.77982 12.3761 4.45657C10.0482 4.13332 7.89629 5.77822 7.56964 8.13062C7.24298 10.483 8.86527 12.652 11.1932 12.9753ZM10.9781 14.5241C7.80383 14.0833 5.5915 11.1255 6.03692 7.91779C6.48234 4.71011 9.41688 2.46694 12.5911 2.90771C15.7654 3.34849 17.9777 6.30636 17.5323 9.51404C17.0869 12.7217 14.1524 14.9649 10.9781 14.5241Z" fill="black"/>
<path d="M11.1671 14.5472C11.6331 14.1148 11.998 13.5829 12.235 12.9905C12.8634 12.9214 13.469 12.7115 14.0076 12.3761C13.8869 13.0834 13.6383 13.7625 13.2741 14.3794C12.5876 14.5657 11.8734 14.6226 11.1672 14.5472L11.1671 14.5472ZM7.8389 7.11313C7.2105 7.18219 6.6049 7.39211 6.06633 7.72755C6.18698 7.02025 6.43561 6.34111 6.79976 5.72417C7.48626 5.53804 8.20049 5.48127 8.90662 5.55669C8.44067 5.98907 8.07589 6.52082 7.8389 7.11313Z" fill="#2B0040"/>
</g>
<path d="M7.51177 10.8384C7.37989 10.7478 7.30466 10.6524 7.28608 10.5523C7.2741 10.4567 7.30888 10.3496 7.39041 10.2309L11.5148 4.22706C11.6009 4.10177 11.6907 4.02758 11.7842 4.00447C11.8843 3.98589 12.0003 4.0219 12.1322 4.1125L16.2468 6.9391C16.3787 7.0297 16.4496 7.11723 16.4595 7.20169C16.476 7.29068 16.4413 7.39782 16.3552 7.5231L16.1717 7.79016C16.0857 7.91545 15.9959 7.98964 15.9024 8.01275C15.82 8.03379 15.7128 7.99902 15.581 7.90842L12.3664 5.70014L11.055 7.6091L13.3893 9.21265C13.5212 9.30325 13.5953 9.39304 13.6119 9.48203C13.6284 9.57102 13.5936 9.67816 13.5075 9.80345L13.3241 10.0705C13.238 10.1958 13.1482 10.27 13.0547 10.2931C12.9657 10.3096 12.8553 10.2726 12.7234 10.182L10.3891 8.57841L8.65646 11.1006C8.57492 11.2193 8.4841 11.2879 8.38398 11.3065C8.29046 11.3296 8.17447 11.2936 8.03599 11.1985L7.51177 10.8384Z" fill="black"/>
<defs>
<clipPath id="clip0_505_66">
<rect width="17.8264" height="17.8264" fill="white" transform="translate(2.45184) rotate(7.90553)"/>
</clipPath>
</defs>
</svg>
