<svg width="441" height="512.02" xmlns="http://www.w3.org/2000/svg" clip-rule="evenodd" fill-rule="evenodd" image-rendering="optimizeQuality" text-rendering="geometricPrecision" shape-rendering="geometricPrecision">

 <g>
  <title>Layer 1</title>
  <path fill="#6645f7" stroke-width="0" id="svg_1" d="m324.87,279.77c32.01,0 61.01,13.01 82.03,34.02c21.09,21 34.1,50.05 34.1,82.1c0,32.06 -13.01,61.11 -34.02,82.11l-1.32,1.22c-20.92,20.29 -49.41,32.8 -80.79,32.8c-32.06,0 -61.1,-13.01 -82.1,-34.02c-21.01,-21 -34.02,-50.05 -34.02,-82.11s13.01,-61.1 34.02,-82.1c21,-21.01 50.04,-34.02 82.1,-34.02zm-81.76,-241.69l0,54.18c0.99,12.93 5.5,23.09 13.42,29.85c8.2,7.01 20.46,10.94 36.69,11.23l37.92,-0.04l-88.03,-95.22zm91.21,120.49l-41.3,-0.04c-22.49,-0.35 -40.21,-6.4 -52.9,-17.24c-13.23,-11.31 -20.68,-27.35 -22.19,-47.23l-0.11,-1.74l0,-67.03l-154.95,0c-10.34,0 -19.75,4.23 -26.55,11.03c-6.8,6.8 -11.03,16.21 -11.03,26.55l0,336.49c0,10.3 4.25,19.71 11.06,26.52c6.8,6.8 16.22,11.05 26.52,11.05l119.41,0c2.54,8.79 5.87,17.25 9.92,25.29l-129.33,0c-17.28,0 -33.02,-7.08 -44.41,-18.46c-11.38,-11.39 -18.46,-27.12 -18.46,-44.4l0,-336.49c0,-17.26 7.08,-32.98 18.45,-44.36c11.44,-11.43 27.16,-18.51 44.42,-18.51l173.88,0c4.11,0 7.76,1.96 10.07,5l109.39,118.34c2.24,2.43 3.34,5.49 3.34,8.55l0.03,119.72c-8.18,-1.97 -16.62,-3.25 -25.26,-3.79l0,-89.25zm-229.76,54.49c-6.98,0 -12.64,-5.66 -12.64,-12.64c0,-6.99 5.66,-12.65 12.64,-12.65l150.49,0c6.98,0 12.65,5.66 12.65,12.65c0,6.98 -5.67,12.64 -12.65,12.64l-150.49,0zm0,72.3c-6.98,0 -12.64,-5.66 -12.64,-12.65c0,-6.98 5.66,-12.64 12.64,-12.64l142.52,0c3.71,0 7.05,1.6 9.37,4.15a149.03,149.03 0 0 0 -30.54,21.14l-121.35,0zm0,72.3c-6.98,0 -12.64,-5.66 -12.64,-12.65c0,-6.98 5.66,-12.64 12.64,-12.64l86.2,0c-3.82,8.05 -6.95,16.51 -9.29,25.29l-76.91,0zm277.27,25.48l0,22.18c0,4.32 -3.66,7.97 -7.98,7.97l-29.9,0l0,29.91c0,4.33 -3.65,7.97 -7.98,7.97l-22.18,0c-4.33,0 -7.98,-3.59 -7.98,-7.97l0,-29.91l-29.91,0c-4.32,0 -7.97,-3.59 -7.97,-7.97l0,-22.18c0,-4.38 3.59,-7.97 7.97,-7.97l29.91,0l0,-29.91c0,-4.39 3.59,-7.97 7.98,-7.97l22.18,0c4.39,0 7.98,3.64 7.98,7.97l0,29.91l29.9,0c4.39,0 7.98,3.7 7.98,7.97z"/>
 </g>
</svg>